# xmcd
#
# Track frame offsets: 
#        182
#        15410
#        31242
#        48707
#        63807
#        77815
#        95072
#        109157
#        126072
#        138230
#        156837
#        168437
#
# Disc length: 2523 seconds
#
# Revision: 3
# Processed by: cddbd v1.5.2PL0 Copyright (c) Steve Scherf et al.
# Submitted via: ExactAudioCopy v1.0b6
#
DISCID=9609d90c
DTITLE=Mahalia Jackson  - Live at Newport 1958
DYEAR=1958
DGENRE=Gospel
TTITLE0=An Evening Prayer
TTITLE1=I'm On My Way
TTITLE2=A City Called Heaven
TTITLE3=It Don't Cost Very Much
TTITLE4=Walk Over God's Heaven
TTITLE5=The Lord's Prayer
TTITLE6=Didn't It Rain
TTITLE7=My God Is Real (Yes, God Is Real)
TTITLE8=He's Got The Whole World In His Hands
TTITLE9=I'm Going To Live The Life I Singabout In My Song
TTITLE10=Joshua Fit The Battle Of Jericho
TTITLE11=His Eye Is On The Sparrow
EXTD=
EXTT0=
EXTT1=
EXTT2=
EXTT3=
EXTT4=
EXTT5=
EXTT6=
EXTT7=
EXTT8=
EXTT9=
EXTT10=
EXTT11=
PLAYORDER=
